# xmcd
#
# Track frame offsets: 
#        150
#        4989
#        16284
#        31735
#        48012
#        71183
#        77132
#        90869
#        101046
#        120281
#        137410
#        149759
#        163460
#        181936
#
# Disc length: 2813 seconds
#
# Revision: 0
# Processed by: cddbd v1.5.1PL2 Copyright (c) Steve Scherf et al.
# Submitted via: ExactAudioCopy v0.90b4
#
DISCID=b10afb0e
DTITLE=The Curst Sons - A Day Late and a Dollar Short
DYEAR=2003
DGENRE=Country
TTITLE0=Shooting at Start
TTITLE1=Railroad Bill
TTITLE2=To Keep from Being Alone
TTITLE3=My Father was a Preacher
TTITLE4=The Cold Wind
TTITLE5=Linin Track
TTITLE6=Mr Casey
TTITLE7=Momento Romantico
TTITLE8=Cuckoo Bird/Stewball
TTITLE9=When They You
TTITLE10=A War of Lust and Logic
TTITLE11=Wandering Feet
TTITLE12=My Time Aint Long
TTITLE13=She is Gone
EXTD=
EXTT0=
EXTT1=
EXTT2=
EXTT3=
EXTT4=
EXTT5=
EXTT6=
EXTT7=
EXTT8=
EXTT9=
EXTT10=
EXTT11=
EXTT12=
EXTT13=
PLAYORDER=
